<svg width="222" height="95" viewBox="0 0 222 95" fill="none" xmlns="http://www.w3.org/2000/svg">
<path d="M56.75 59.1875V2H39.125L0.875 62.375L1.5625 73.25H39.375V93H56.75V73.25H67.3125V59.1875H56.75ZM17.9375 59.1875L37.6875 28.375L39.375 25.375V59.1875H17.9375Z" fill="url(#paint0_linear_803_1662)"/>
<path d="M142.125 58.375V36.625C142.125 30.75 141.438 25.5833 140.062 21.125C138.688 16.625 136.729 12.8542 134.188 9.8125C131.604 6.8125 128.479 4.54167 124.812 3C121.146 1.45833 117.021 0.6875 112.438 0.6875C107.896 0.6875 103.792 1.45833 100.125 3C96.5 4.54167 93.4167 6.8125 90.875 9.8125C88.2917 12.8542 86.3125 16.625 84.9375 21.125C83.5625 25.5833 82.875 30.75 82.875 36.625V58.375C82.875 64.25 83.5625 69.4375 84.9375 73.9375C86.3542 78.3958 88.3542 82.125 90.9375 85.125C93.4792 88.1667 96.5833 90.4583 100.25 92C103.917 93.5417 108.021 94.3125 112.562 94.3125C117.146 94.3125 121.271 93.5417 124.938 92C128.604 90.4583 131.708 88.1667 134.25 85.125C136.792 82.125 138.729 78.3958 140.062 73.9375C141.438 69.4375 142.125 64.25 142.125 58.375ZM100.375 50.875C100.375 49.5833 100.375 48.6042 100.375 47.9375C100.375 47.2708 100.375 45.9375 100.375 43.9375V33.875C100.375 30.5 100.625 27.5833 101.125 25.125C101.667 22.6667 102.479 20.6667 103.562 19.125C104.562 17.6667 105.792 16.5833 107.25 15.875C108.75 15.125 110.479 14.75 112.438 14.75C114.188 14.75 115.75 15.0417 117.125 15.625C118.542 16.1667 119.729 17.0208 120.688 18.1875C121.938 19.6458 122.875 21.6042 123.5 24.0625C124.167 26.4792 124.542 29.3958 124.625 32.8125L100.375 50.875ZM124.625 61C124.625 64.375 124.354 67.3125 123.812 69.8125C123.312 72.2708 122.542 74.2917 121.5 75.875C120.5 77.375 119.25 78.5 117.75 79.25C116.25 79.9583 114.521 80.3125 112.562 80.3125C110.438 80.3125 108.604 79.8958 107.062 79.0625C105.521 78.2292 104.25 76.9583 103.25 75.25C102.375 73.8333 101.688 72.0625 101.188 69.9375C100.729 67.8125 100.458 65.375 100.375 62.625L124.625 44.625C124.625 45.8333 124.625 46.7708 124.625 47.4375C124.625 48.0625 124.625 49.0625 124.625 50.4375V61Z" fill="url(#paint1_linear_803_1662)"/>
<path d="M210.5 59.1875V2H192.875L154.625 62.375L155.312 73.25H193.125V93H210.5V73.25H221.062V59.1875H210.5ZM171.688 59.1875L191.438 28.375L193.125 25.375V59.1875H171.688Z" fill="url(#paint2_linear_803_1662)"/>
<defs>
<linearGradient id="paint0_linear_803_1662" x1="36.8241" y1="38.75" x2="74.1057" y2="-56.9811" gradientUnits="userSpaceOnUse">
<stop stop-color="#8566FF"/>
<stop offset="1" stop-color="#00D1E8"/>
</linearGradient>
<linearGradient id="paint1_linear_803_1662" x1="36.8241" y1="38.75" x2="74.1057" y2="-56.9811" gradientUnits="userSpaceOnUse">
<stop stop-color="#8566FF"/>
<stop offset="1" stop-color="#00D1E8"/>
</linearGradient>
<linearGradient id="paint2_linear_803_1662" x1="36.8241" y1="38.75" x2="74.1057" y2="-56.9811" gradientUnits="userSpaceOnUse">
<stop stop-color="#8566FF"/>
<stop offset="1" stop-color="#00D1E8"/>
</linearGradient>
</defs>
</svg>
