<svg width="24" height="24" viewBox="0 0 24 24" fill="none" xmlns="http://www.w3.org/2000/svg">
<path d="M12.0399 18.2124C11.7431 18.5012 11.7366 18.9761 12.0254 19.273C12.3143 19.5698 12.7891 19.5763 13.086 19.2875L12.0399 18.2124ZM19.5005 11.9999L20.0235 12.5375C20.1686 12.3963 20.2505 12.2024 20.2505 11.9999C20.2505 11.7975 20.1686 11.6036 20.0235 11.4624L19.5005 11.9999ZM13.086 4.71239C12.7891 4.42354 12.3143 4.43005 12.0254 4.72692C11.7366 5.0238 11.7431 5.49863 12.0399 5.78748L13.086 4.71239ZM4.50049 11.2499C4.08627 11.2499 3.75049 11.5857 3.75049 11.9999C3.75049 12.4142 4.08627 12.7499 4.50049 12.7499V11.2499ZM13.086 19.2875L20.0235 12.5375L18.9775 11.4624L12.0399 18.2124L13.086 19.2875ZM20.0235 11.4624L13.086 4.71239L12.0399 5.78748L18.9775 12.5375L20.0235 11.4624ZM19.5005 11.2499H4.50049V12.7499H19.5005V11.2499Z" fill="#1C1C1C"/>
</svg>
