<svg width="32" height="32" viewBox="0 0 32 32" fill="none" xmlns="http://www.w3.org/2000/svg">
<rect width="32" height="32" rx="4" fill="#111223"/>
<path d="M20.3614 16.5514C20.3614 18.9601 18.4087 20.9128 16 20.9128C13.5913 20.9128 11.6386 18.9601 11.6386 16.5514C11.6386 14.1427 13.5913 12.19 16 12.19C18.4087 12.19 20.3614 14.1427 20.3614 16.5514Z" fill="url(#paint0_linear_1_308)"/>
<path fill-rule="evenodd" clip-rule="evenodd" d="M16 28C22.3229 28 27.4486 22.8743 27.4486 16.5514C27.4486 11.1875 23.7598 6.68522 18.7807 5.44285C18.6036 4.06484 17.4262 3 16 3C14.5738 3 13.3963 4.06484 13.2193 5.44285C8.24014 6.68522 4.55139 11.1875 4.55139 16.5514C4.55139 22.8743 9.6771 28 16 28ZM16 26.9097C21.7207 26.9097 26.3582 22.2721 26.3582 16.5514C26.3582 11.766 23.1131 7.7385 18.7035 6.54949C18.3769 7.73596 17.2902 8.60748 16 8.60748C14.7098 8.60748 13.6231 7.73596 13.2965 6.54949C8.88684 7.7385 5.64173 11.766 5.64173 16.5514C5.64173 22.2721 10.2793 26.9097 16 26.9097Z" fill="url(#paint1_linear_1_308)"/>
<defs>
<linearGradient id="paint0_linear_1_308" x1="4.00622" y1="28" x2="28.91" y2="5.1909" gradientUnits="userSpaceOnUse">
<stop stop-color="#8566FF"/>
<stop offset="1" stop-color="#00D1E8"/>
</linearGradient>
<linearGradient id="paint1_linear_1_308" x1="8.28972" y1="13.1635" x2="23.0093" y2="-1.55608" gradientUnits="userSpaceOnUse">
<stop stop-color="#8566FF"/>
<stop offset="1" stop-color="#00D1E8"/>
</linearGradient>
</defs>
</svg>
