<svg width="26" height="27" viewBox="0 0 26 27" fill="none" xmlns="http://www.w3.org/2000/svg">
<path d="M17.6667 14.5C17.6667 17.0773 15.5773 19.1667 13 19.1667C10.4227 19.1667 8.33333 17.0773 8.33333 14.5C8.33333 11.9227 10.4227 9.83333 13 9.83333C15.5773 9.83333 17.6667 11.9227 17.6667 14.5Z" fill="#8566FF"/>
<path fill-rule="evenodd" clip-rule="evenodd" d="M13 26.75C19.7655 26.75 25.25 21.2655 25.25 14.5C25.25 8.76066 21.303 3.94319 15.9754 2.61385C15.7859 1.13938 14.526 0 13 0C11.474 0 10.2141 1.13938 10.0246 2.61385C4.69696 3.94319 0.75 8.76066 0.75 14.5C0.75 21.2655 6.23451 26.75 13 26.75ZM13 25.5833C19.1212 25.5833 24.0833 20.6212 24.0833 14.5C24.0833 9.3796 20.6111 5.0702 15.8927 3.79796C15.5433 5.06747 14.3806 6 13 6C11.6194 6 10.4567 5.06747 10.1073 3.79796C5.38893 5.07019 1.91667 9.3796 1.91667 14.5C1.91667 20.6212 6.87884 25.5833 13 25.5833Z" fill="#8566FF"/>
</svg>
