<svg width="24" height="24" viewBox="0 0 24 24" fill="none" xmlns="http://www.w3.org/2000/svg">
<g clip-path="url(#clip0_788_1370)">
<path d="M23 3.00994C23 3.00994 20.982 4.20194 19.86 4.53994C19.2578 3.84745 18.4574 3.35663 17.5671 3.13387C16.6768 2.9111 15.7395 2.96714 14.8821 3.29439C14.0247 3.62165 13.2885 4.20434 12.773 4.96366C12.2576 5.72297 11.9877 6.62228 12 7.53994V8.53994C10.2427 8.58551 8.5013 8.19575 6.93104 7.40539C5.36077 6.61502 4.01035 5.44858 3.00003 4.00994C3.00003 4.00994 -0.999969 13.0099 8.00003 17.0099C5.94056 18.4079 3.48719 19.1089 1.00003 19.0099C10 24.0099 21 19.0099 21 7.50994C21 7.23194 20.972 6.95394 20.92 6.67994C21.94 5.67394 23 3.00994 23 3.00994Z" stroke="white" stroke-width="1.53" stroke-linecap="round" stroke-linejoin="round"/>
</g>
<defs>
<clipPath id="clip0_788_1370">
<rect width="24" height="24" fill="white"/>
</clipPath>
</defs>
</svg>
