<svg width="24" height="25" viewBox="0 0 24 25" fill="none" xmlns="http://www.w3.org/2000/svg">
<g clip-path="url(#clip0_791_1416)">
<path d="M2 11.2194V4.81936C2 4.66023 2.06321 4.50762 2.17574 4.3951C2.28826 4.28257 2.44087 4.21936 2.6 4.21936H8.778C8.92101 4.21935 9.05932 4.27042 9.168 4.36336L12.332 7.07536C12.4407 7.1683 12.579 7.21937 12.722 7.21936H21.4C21.4788 7.21936 21.5568 7.23488 21.6296 7.26503C21.7024 7.29519 21.7685 7.33938 21.8243 7.3951C21.88 7.45081 21.9242 7.51695 21.9543 7.58975C21.9845 7.66255 22 7.74057 22 7.81936V11.2194M2 11.2194V19.6194C2 19.7785 2.06321 19.9311 2.17574 20.0436C2.28826 20.1561 2.44087 20.2194 2.6 20.2194H21.4C21.5591 20.2194 21.7117 20.1561 21.8243 20.0436C21.9368 19.9311 22 19.7785 22 19.6194V11.2194" fill="#8566FF" stroke="#8566FF" stroke-linecap="round" stroke-linejoin="round"/>
</g>
<defs>
<clipPath id="clip0_791_1416">
<rect width="24" height="24" fill="white" transform="translate(0 0.21936)"/>
</clipPath>
</defs>
</svg>
