<svg width="256" height="256" viewBox="0 0 256 256" fill="none" xmlns="http://www.w3.org/2000/svg">
<rect width="256" height="256" rx="32" fill="#111223"/>
<path d="M162.891 132.411C162.891 151.681 147.27 167.302 128 167.302C108.73 167.302 93.1089 151.681 93.1089 132.411C93.1089 113.141 108.73 97.5202 128 97.5202C147.27 97.5202 162.891 113.141 162.891 132.411Z" fill="url(#paint0_linear_1_307)"/>
<path fill-rule="evenodd" clip-rule="evenodd" d="M128 224C178.583 224 219.589 182.994 219.589 132.411C219.589 89.5003 190.079 53.4818 150.246 43.5428C148.829 32.5188 139.409 24 128 24C116.59 24 107.171 32.5188 105.754 43.5428C65.9211 53.4818 36.4111 89.5003 36.4111 132.411C36.4111 182.994 77.4168 224 128 224ZM128 215.277C173.766 215.277 210.866 178.177 210.866 132.411C210.866 94.1279 184.905 61.908 149.628 52.3959C147.015 61.8877 138.322 68.8598 128 68.8598C117.678 68.8598 108.985 61.8877 106.372 52.3959C71.0947 61.908 45.1339 94.1279 45.1339 132.411C45.1339 178.177 82.2343 215.277 128 215.277Z" fill="url(#paint1_linear_1_307)"/>
<defs>
<linearGradient id="paint0_linear_1_307" x1="32.0498" y1="224" x2="231.28" y2="41.5272" gradientUnits="userSpaceOnUse">
<stop stop-color="#8566FF"/>
<stop offset="1" stop-color="#00D1E8"/>
</linearGradient>
<linearGradient id="paint1_linear_1_307" x1="66.3178" y1="105.308" x2="184.075" y2="-12.4486" gradientUnits="userSpaceOnUse">
<stop stop-color="#8566FF"/>
<stop offset="1" stop-color="#00D1E8"/>
</linearGradient>
</defs>
</svg>
